name rise34.3697peak60.0498fall86.3158.mot
datacolumns 19
datarows 27
range 11.35328900000000 11.39662500000000
endheader
time	ground_force1_vx	ground_force1_vy	ground_force1_vz	ground_force1_px	ground_force1_py	ground_force1_pz	ground_force2_vx	ground_force2_vy	ground_force2_vz	ground_force2_px	ground_force2_py	ground_force2_pz	ground_torque1_x	ground_torque1_y	ground_torque1_z	ground_torque2_x	ground_torque2_y	ground_torque2_z	
11.35328900000000	56.42358900000000	750.40004299999998	60.00884200000000	0.43880200000000	0.00000000000000	0.13970200000000	0.00000000000000	0.00000000000000	0.00000000000000	0.00000000000000	0.00000000000000	0.00000000000000	0.00000000000000	35.27117400000000	0.00000000000000	0.00000000000000	0.00000000000000	0.00000000000000	
11.35495600000000	55.70436500000000	753.93874300000004	60.25193900000000	0.43688600000000	0.00000000000000	0.13980300000000	0.00000000000000	0.00000000000000	0.00000000000000	0.00000000000000	0.00000000000000	0.00000000000000	0.00000000000000	35.45988400000000	0.00000000000000	0.00000000000000	0.00000000000000	0.00000000000000	
11.35662500000000	54.98734400000000	757.37246800000003	60.49118100000000	0.43500500000000	0.00000000000000	0.13990400000000	0.00000000000000	0.00000000000000	0.00000000000000	0.00000000000000	0.00000000000000	0.00000000000000	0.00000000000000	35.64657700000000	0.00000000000000	0.00000000000000	0.00000000000000	0.00000000000000	
11.35829400000000	54.27318600000000	760.69679399999995	60.72625400000000	0.43316100000000	0.00000000000000	0.14000400000000	0.00000000000000	0.00000000000000	0.00000000000000	0.00000000000000	0.00000000000000	0.00000000000000	0.00000000000000	35.83108900000000	0.00000000000000	0.00000000000000	0.00000000000000	0.00000000000000	
11.35995700000000	53.56247200000000	763.90736200000003	60.95678100000000	0.43135400000000	0.00000000000000	0.14010400000000	0.00000000000000	0.00000000000000	0.00000000000000	0.00000000000000	0.00000000000000	0.00000000000000	0.00000000000000	36.01321500000000	0.00000000000000	0.00000000000000	0.00000000000000	0.00000000000000	
11.36162900000000	52.85570500000000	766.99990500000001	61.18232800000000	0.42958700000000	0.00000000000000	0.14020200000000	0.00000000000000	0.00000000000000	0.00000000000000	0.00000000000000	0.00000000000000	0.00000000000000	0.00000000000000	36.19270300000000	0.00000000000000	0.00000000000000	0.00000000000000	0.00000000000000	
11.36329200000000	52.15331400000000	769.97026900000003	61.40240500000000	0.42786200000000	0.00000000000000	0.14029900000000	0.00000000000000	0.00000000000000	0.00000000000000	0.00000000000000	0.00000000000000	0.00000000000000	0.00000000000000	36.36926500000000	0.00000000000000	0.00000000000000	0.00000000000000	0.00000000000000	
11.36495300000000	51.45565900000000	772.81443700000000	61.61647700000000	0.42618000000000	0.00000000000000	0.14039500000000	0.00000000000000	0.00000000000000	0.00000000000000	0.00000000000000	0.00000000000000	0.00000000000000	0.00000000000000	36.54257800000000	0.00000000000000	0.00000000000000	0.00000000000000	0.00000000000000	
11.36661900000000	50.76302800000000	775.52854900000000	61.82396300000000	0.42454200000000	0.00000000000000	0.14049000000000	0.00000000000000	0.00000000000000	0.00000000000000	0.00000000000000	0.00000000000000	0.00000000000000	0.00000000000000	36.71228500000000	0.00000000000000	0.00000000000000	0.00000000000000	0.00000000000000	
11.36828800000000	50.07564800000000	778.10892500000000	62.02424600000000	0.42294800000000	0.00000000000000	0.14058200000000	0.00000000000000	0.00000000000000	0.00000000000000	0.00000000000000	0.00000000000000	0.00000000000000	0.00000000000000	36.87800600000000	0.00000000000000	0.00000000000000	0.00000000000000	0.00000000000000	
11.36995200000000	49.39368300000000	780.55208700000003	62.21667900000000	0.42140100000000	0.00000000000000	0.14067300000000	0.00000000000000	0.00000000000000	0.00000000000000	0.00000000000000	0.00000000000000	0.00000000000000	0.00000000000000	37.03933200000000	0.00000000000000	0.00000000000000	0.00000000000000	0.00000000000000	
11.37162800000000	48.71724000000000	782.85477500000002	62.40058800000000	0.41990000000000	0.00000000000000	0.14076300000000	0.00000000000000	0.00000000000000	0.00000000000000	0.00000000000000	0.00000000000000	0.00000000000000	0.00000000000000	37.19583800000000	0.00000000000000	0.00000000000000	0.00000000000000	0.00000000000000	
11.37329200000000	48.04637600000000	785.01396599999998	62.57528300000000	0.41844500000000	0.00000000000000	0.14085000000000	0.00000000000000	0.00000000000000	0.00000000000000	0.00000000000000	0.00000000000000	0.00000000000000	0.00000000000000	37.34708300000000	0.00000000000000	0.00000000000000	0.00000000000000	0.00000000000000	
11.37495600000000	47.38109500000000	787.02689199999998	62.74006000000000	0.41703800000000	0.00000000000000	0.14093500000000	0.00000000000000	0.00000000000000	0.00000000000000	0.00000000000000	0.00000000000000	0.00000000000000	0.00000000000000	37.49261500000000	0.00000000000000	0.00000000000000	0.00000000000000	0.00000000000000	
11.37662200000000	46.72136000000000	788.89105800000004	62.89421000000000	0.41567900000000	0.00000000000000	0.14101800000000	0.00000000000000	0.00000000000000	0.00000000000000	0.00000000000000	0.00000000000000	0.00000000000000	0.00000000000000	37.63197600000000	0.00000000000000	0.00000000000000	0.00000000000000	0.00000000000000	
11.37829300000000	46.06709000000000	790.60424999999998	63.03702600000000	0.41436600000000	0.00000000000000	0.14109800000000	0.00000000000000	0.00000000000000	0.00000000000000	0.00000000000000	0.00000000000000	0.00000000000000	0.00000000000000	37.76470200000000	0.00000000000000	0.00000000000000	0.00000000000000	0.00000000000000	
11.37996000000000	45.41817200000000	792.16455499999995	63.16780700000000	0.41310100000000	0.00000000000000	0.14117600000000	0.00000000000000	0.00000000000000	0.00000000000000	0.00000000000000	0.00000000000000	0.00000000000000	0.00000000000000	37.89033400000000	0.00000000000000	0.00000000000000	0.00000000000000	0.00000000000000	
11.38161900000000	44.77445900000000	793.57036800000003	63.28586600000000	0.41188300000000	0.00000000000000	0.14125200000000	0.00000000000000	0.00000000000000	0.00000000000000	0.00000000000000	0.00000000000000	0.00000000000000	0.00000000000000	38.00841600000000	0.00000000000000	0.00000000000000	0.00000000000000	0.00000000000000	
11.38328500000000	44.13577700000000	794.82040300000006	63.39053800000000	0.41071100000000	0.00000000000000	0.14132500000000	0.00000000000000	0.00000000000000	0.00000000000000	0.00000000000000	0.00000000000000	0.00000000000000	0.00000000000000	38.11850200000000	0.00000000000000	0.00000000000000	0.00000000000000	0.00000000000000	
11.38495700000000	43.50192800000000	795.91370400000005	63.48118300000000	0.40958500000000	0.00000000000000	0.14139500000000	0.00000000000000	0.00000000000000	0.00000000000000	0.00000000000000	0.00000000000000	0.00000000000000	0.00000000000000	38.22015800000000	0.00000000000000	0.00000000000000	0.00000000000000	0.00000000000000	
11.38662000000000	42.87269700000000	796.84965000000000	63.55719100000000	0.40850500000000	0.00000000000000	0.14146300000000	0.00000000000000	0.00000000000000	0.00000000000000	0.00000000000000	0.00000000000000	0.00000000000000	0.00000000000000	38.31296700000000	0.00000000000000	0.00000000000000	0.00000000000000	0.00000000000000	
11.38828700000000	42.24785300000000	797.62795800000004	63.61799300000000	0.40746800000000	0.00000000000000	0.14152700000000	0.00000000000000	0.00000000000000	0.00000000000000	0.00000000000000	0.00000000000000	0.00000000000000	0.00000000000000	38.39653200000000	0.00000000000000	0.00000000000000	0.00000000000000	0.00000000000000	
11.38995400000000	41.62715300000000	798.24869200000001	63.66306000000000	0.40647500000000	0.00000000000000	0.14158900000000	0.00000000000000	0.00000000000000	0.00000000000000	0.00000000000000	0.00000000000000	0.00000000000000	0.00000000000000	38.47047900000000	0.00000000000000	0.00000000000000	0.00000000000000	0.00000000000000	
11.39162500000000	41.01034800000000	798.71226200000001	63.69191300000000	0.40552400000000	0.00000000000000	0.14164900000000	0.00000000000000	0.00000000000000	0.00000000000000	0.00000000000000	0.00000000000000	0.00000000000000	0.00000000000000	38.53446000000000	0.00000000000000	0.00000000000000	0.00000000000000	0.00000000000000	
11.39328600000000	40.39718600000000	799.01942499999996	63.70412200000000	0.40461400000000	0.00000000000000	0.14170500000000	0.00000000000000	0.00000000000000	0.00000000000000	0.00000000000000	0.00000000000000	0.00000000000000	0.00000000000000	38.58815500000000	0.00000000000000	0.00000000000000	0.00000000000000	0.00000000000000	
11.39495900000000	39.78741300000000	799.17128400000001	63.69931500000000	0.40374400000000	0.00000000000000	0.14175800000000	0.00000000000000	0.00000000000000	0.00000000000000	0.00000000000000	0.00000000000000	0.00000000000000	0.00000000000000	38.63127700000000	0.00000000000000	0.00000000000000	0.00000000000000	0.00000000000000	
11.39662500000000	39.18078000000000	799.16928900000005	63.67718200000000	0.40291100000000	0.00000000000000	0.14180800000000	0.00000000000000	0.00000000000000	0.00000000000000	0.00000000000000	0.00000000000000	0.00000000000000	0.00000000000000	38.66357300000000	0.00000000000000	0.00000000000000	0.00000000000000	0.00000000000000	
